<svg xmlns="http://www.w3.org/2000/svg" viewBox="0 0 400 300">
  <defs>
    <linearGradient id="g2" x1="0" y1="0" x2="1" y2="1">
      <stop offset="0%" stop-color="#0f5d54"/>
      <stop offset="100%" stop-color="#00e5b0"/>
    </linearGradient>
  </defs>
  <rect width="400" height="300" fill="url(#g2)"/>
  <rect x="24" y="24" width="352" height="252" rx="14" fill="rgba(255,255,255,0.08)"/>
  <circle cx="44" cy="44" r="4" fill="#fff" opacity="0.55"/>
  <circle cx="58" cy="44" r="4" fill="#fff" opacity="0.55"/>
  <circle cx="72" cy="44" r="4" fill="#fff" opacity="0.55"/>
  <rect x="40" y="72" width="150" height="16" rx="4" fill="rgba(255,255,255,0.55)"/>
  <rect x="40" y="104" width="78" height="70" rx="10" fill="rgba(255,255,255,0.18)"/>
  <rect x="128" y="104" width="78" height="70" rx="10" fill="rgba(255,255,255,0.18)"/>
  <rect x="216" y="104" width="78" height="70" rx="10" fill="rgba(255,255,255,0.18)"/>
  <rect x="304" y="104" width="56" height="70" rx="10" fill="rgba(255,255,255,0.18)"/>
  <rect x="50" y="164" width="30" height="8" rx="4" fill="rgba(255,255,255,0.85)"/>
  <rect x="138" y="164" width="30" height="8" rx="4" fill="rgba(255,255,255,0.85)"/>
  <rect x="226" y="164" width="30" height="8" rx="4" fill="rgba(255,255,255,0.85)"/>
  <rect x="40" y="200" width="320" height="50" rx="10" fill="rgba(255,255,255,0.1)"/>
</svg>
